<svg width="361" height="279" viewBox="0 0 361 279" fill="none" xmlns="http://www.w3.org/2000/svg">
    <path opacity="0.18" d="M167.56 7.85L166.36 7.52C157.45 5.05 148.62 2.17 139.46 0.84C102.8 -4.48 66.55 16.22 41.82 43.84C22.19 65.72 7.70002 92.58 2.30002 121.49C-3.04998 150.13 0.820013 179.82 15.19 205.13C26.88 225.71 32.01 250.3 53.72 263.88C69.83 273.95 89.83 274.88 108.82 275.43L185.12 277.8C206.8 278.47 228.99 279.13 250.25 274.13C261.51 271.48 268.3 268.5 279.91 269.02C291.11 269.52 302.3 269.72 313.37 267.6C328.68 264.68 343.75 257.03 352.24 243.96C361.24 230.13 361.65 212.42 359.24 196.1C356.83 179.78 351.99 163.79 351.43 147.31C350.79 128.9 355.55 110.78 357.43 92.45C359.31 74.12 357.67 54.18 346.2 39.76C336.08 27.04 319.74 20.67 303.61 18.6C287.48 16.53 271.15 18.19 254.9 18.6C225.421 19.2455 196.003 15.6247 167.56 7.85Z" fill="#6C63FF"/>
    <path d="M135.86 188.15L136.86 192.47C137.104 193.743 137.511 194.98 138.07 196.15C139.184 197.966 140.73 199.477 142.57 200.55C145.36 202.41 148.57 203.99 151.88 203.88C152.122 203.921 152.37 203.904 152.603 203.828C152.837 203.753 153.048 203.622 153.22 203.447C153.392 203.273 153.519 203.059 153.591 202.824C153.662 202.589 153.675 202.341 153.63 202.1C153.81 196.37 147.97 194.71 147.63 189.1C147.43 185.93 147.22 182.75 147.01 179.58C146.75 175.76 145.3 168.58 141.1 167.12C131.77 163.84 133.66 178.79 134.7 183.2L135.86 188.15Z" fill="#E4A98A"/>
    <path d="M151.19 184.44L151.39 184.78C152.187 185.922 152.571 187.301 152.48 188.69C152.289 190.176 152.37 191.684 152.72 193.14C153.39 195.14 155.27 196.36 157.1 197.33C160.241 199.164 163.803 200.153 167.44 200.2C167.975 200.213 168.506 200.1 168.99 199.87C169.765 199.29 170.287 198.434 170.45 197.48C170.557 197.196 170.601 196.893 170.58 196.59C170.495 196.23 170.311 195.902 170.05 195.64C168.52 193.92 166.48 192.76 164.72 191.28C163.77 190.583 162.988 189.682 162.431 188.644C161.874 187.606 161.556 186.457 161.5 185.28C161.42 182.28 161.11 179.28 160.91 176.28C160.59 171.54 157.31 159.53 150.15 164.91C145.8 168.17 147.15 173.91 148.72 178.32C149.379 180.423 150.205 182.469 151.19 184.44Z" fill="#E4A98A"/>
    <path d="M216 180.99L215.53 185.36C215.44 186.632 215.209 187.89 214.84 189.11C214.138 190.918 213.005 192.528 211.54 193.8C209.41 195.8 206.95 197.63 204.21 197.75C204.024 197.778 203.833 197.767 203.651 197.719C203.469 197.671 203.298 197.586 203.15 197.47C202.827 197.082 202.647 196.595 202.64 196.09C202.01 190.4 206.64 188.35 206.47 182.74C206.37 179.56 206.277 176.38 206.19 173.2C206.08 169.38 206.67 162.14 209.98 160.38C217.33 156.48 216.98 171.51 216.54 175.97L216 180.99Z" fill="#E4A98A"/>
    <path d="M203.19 178.3L203.05 178.65C202.482 179.901 202.287 181.291 202.49 182.65C202.766 184.117 202.823 185.616 202.66 187.1C202.172 188.94 201.022 190.535 199.43 191.58C196.96 193.49 194.19 195 191.22 195.14C190.781 195.192 190.336 195.116 189.94 194.92C189.227 194.339 188.736 193.53 188.55 192.63C188.433 192.354 188.368 192.059 188.36 191.76C188.399 191.403 188.523 191.06 188.72 190.76C189.82 188.95 191.4 187.65 192.72 186.05C193.471 185.201 194.046 184.212 194.412 183.139C194.778 182.066 194.926 180.931 194.85 179.8C194.66 176.8 194.67 173.8 194.58 170.8C194.45 166.05 196.13 153.86 202.42 158.73C206.24 161.73 205.64 167.54 204.7 172.01C204.342 174.139 203.838 176.241 203.19 178.3Z" fill="#E4A98A"/>
    <path d="M135.64 76.08C138.858 75.7169 142.105 75.6834 145.33 75.98C148.527 76.2768 151.586 77.4231 154.19 79.3C155.958 80.7495 157.46 82.4955 158.63 84.46C160.204 86.9633 161.569 89.5922 162.71 92.32C164.83 97.27 166.41 102.61 165.71 107.91C165.712 108.034 165.669 108.155 165.59 108.25C165.467 108.336 165.319 108.378 165.17 108.37C153.66 108.88 142.17 108.67 130.63 109.12C124.22 109.37 117.63 109.81 111.53 107.99C112.6 105.179 113.335 102.253 113.72 99.27C114.15 95.83 114.13 92.27 115.63 89.08C116.7 87.059 118.092 85.2251 119.75 83.65C121.295 81.9487 123.049 80.4501 124.97 79.19C126.603 78.1509 128.448 77.4914 130.37 77.26C132.19 77.06 133.75 76.24 135.64 76.08Z" fill="#6C63FF"/>
    <path d="M150.58 93.58C148.723 96.1753 147.626 99.2362 147.41 102.42C145.442 101.6 143.32 101.218 141.19 101.3C140 101.477 138.785 101.36 137.65 100.96C137.031 100.593 136.486 100.115 136.04 99.55L131.89 94.92C130.67 93.56 128.96 92.06 127.25 92.72C126.349 93.167 125.639 93.923 125.25 94.85C123.065 98.9722 122.046 103.612 122.3 108.27C124.982 108.903 127.725 109.239 130.48 109.27C140.58 109.73 150.7 109.79 160.81 109.82C161.64 109.898 162.474 109.742 163.22 109.37C166.08 107.58 159.44 103.48 158.22 102.29C155.44 99.5995 152.885 96.6865 150.58 93.58Z" fill="url(#paint0_linear)"/>
    <path d="M152.06 68.76C151.586 70.091 150.864 71.3196 149.93 72.38C148.933 73.3611 147.75 74.1329 146.45 74.65C145.265 75.2113 143.987 75.5502 142.68 75.65C141.383 75.6483 140.1 75.3813 138.91 74.8654C137.72 74.3494 136.648 73.5955 135.76 72.65C134.054 70.8016 132.629 68.7126 131.53 66.45C131.47 66.81 130.95 66.97 130.59 66.81C130.258 66.6217 130 66.3252 129.86 65.97C129.294 64.8269 128.98 63.5752 128.94 62.3C128.91 62.0222 128.959 61.7417 129.08 61.49C129.53 60.7 130.79 60.97 131.65 61.35C132.37 59.98 132.22 58.35 132.75 56.9C133.75 54.14 136.91 52.72 139.75 51.59C142.414 50.3698 145.27 49.622 148.19 49.38C148.99 49.313 149.794 49.4328 150.54 49.73C151.224 50.0863 151.829 50.5759 152.32 51.17C153.525 52.2789 154.383 53.7135 154.79 55.3C154.802 56.42 154.664 57.5366 154.38 58.62C154.081 62.0913 153.3 65.504 152.06 68.76Z" fill="#E4A98A"/>
    <path d="M136.71 78.92C136.54 79.8832 136.673 80.8754 137.09 81.76C137.9 83.09 139.81 83.43 141.42 83.22C142.317 83.1397 143.181 82.8447 143.94 82.36C144.818 81.6978 145.437 80.7499 145.69 79.68C145.93 78.6409 146.04 77.5762 146.02 76.51L146.11 72.51C146.119 72.4572 146.116 72.4032 146.102 72.3515C146.088 72.2998 146.064 72.2516 146.03 72.21C145.943 72.1565 145.842 72.1319 145.74 72.14H141.42C140.49 72.14 138.48 71.77 137.69 72.33C136.4 73.3 136.71 77.54 136.71 78.92Z" fill="#E4A98A"/>
    <path d="M129.19 62.1C128.861 62.3387 128.577 62.6332 128.35 62.97C128.228 63.1368 128.063 63.2682 127.873 63.3508C127.684 63.4334 127.476 63.4641 127.27 63.44C126.955 63.3225 126.7 63.0852 126.56 62.78C125.717 61.5043 125.269 60.0089 125.27 58.48C125.294 57.7092 125.528 56.9596 125.947 56.3126C126.367 55.6655 126.956 55.1459 127.65 54.81C127.84 54.73 128.05 54.65 128.12 54.46C128.19 54.27 128.07 54.11 127.98 53.95C127.191 52.6358 126.773 51.1326 126.77 49.6C126.74 49.0748 126.858 48.5518 127.11 48.09C127.446 47.7015 127.86 47.3878 128.326 47.1691C128.791 46.9503 129.296 46.8314 129.81 46.82C131.29 46.61 133.07 46.64 133.92 47.82C134.064 47.1529 134.414 46.5478 134.92 46.09C135.194 45.8591 135.53 45.7142 135.885 45.6733C136.241 45.6324 136.601 45.6973 136.92 45.86C137.404 44.9651 138.082 44.1894 138.904 43.5892C139.725 42.9889 140.67 42.5793 141.67 42.39C142.66 42.1544 143.696 42.1854 144.67 42.48C146.27 43.03 147.32 44.48 148.26 45.8C149.169 45.4449 150.173 45.4173 151.1 45.7221C152.027 46.0268 152.819 46.6448 153.34 47.47C153.44 47.7013 153.582 47.9116 153.76 48.09C154.231 48.3526 154.78 48.441 155.31 48.34C156.172 48.3285 157.018 48.581 157.733 49.0636C158.448 49.5462 158.998 50.2358 159.31 51.04C159.559 51.837 159.544 52.6933 159.266 53.4809C158.989 54.2685 158.464 54.9452 157.77 55.41C157.163 55.7018 156.614 56.1016 156.15 56.59C155.9 56.95 155.82 57.4 155.54 57.74C155.294 57.9745 155.004 58.1572 154.686 58.2775C154.368 58.3977 154.03 58.453 153.69 58.44C152.229 58.5131 150.773 58.2214 149.453 57.5911C148.134 56.9609 146.991 56.012 146.13 54.83C145.93 54.54 145.67 54.2 145.3 54.21C145.111 54.2386 144.932 54.3142 144.78 54.43C143.963 54.8932 143.028 55.1061 142.091 55.0421C141.154 54.9781 140.256 54.64 139.51 54.07C139 53.67 138.45 53.07 137.8 53.25C136.67 53.5 137.01 55.39 135.97 55.89C135.827 55.9395 135.692 56.0103 135.57 56.1C135.46 56.2425 135.407 56.4205 135.42 56.6C135.495 57.4617 135.495 58.3283 135.42 59.19C134.966 60.7186 134.113 62.099 132.95 63.19C131.59 64.54 129.96 63.24 129.19 62.1Z" fill="#3E3E52"/>
    <path d="M205.28 76.08C202.065 75.7168 198.822 75.6833 195.6 75.98C192.387 76.2719 189.311 77.4182 186.69 79.3C184.928 80.7525 183.429 82.4981 182.26 84.46C180.687 86.955 179.325 89.5775 178.19 92.3C176.07 97.25 174.49 102.59 175.19 107.89C175.196 108.014 175.242 108.133 175.32 108.23C175.443 108.316 175.591 108.358 175.74 108.35C187.24 108.86 198.74 108.65 210.27 109.1C216.68 109.35 223.27 109.79 229.38 107.97C228.31 105.177 227.574 102.266 227.19 99.3C226.76 95.86 226.78 92.3 225.27 89.11C224.207 87.0872 222.818 85.2528 221.16 83.68C219.61 81.9808 217.853 80.4825 215.93 79.22C214.301 78.1795 212.459 77.5198 210.54 77.29C208.7 77.06 207.19 76.24 205.28 76.08Z" fill="#6C63FF"/>
    <path d="M205.28 76.08C202.065 75.7168 198.822 75.6833 195.6 75.98C192.387 76.2719 189.311 77.4182 186.69 79.3C184.928 80.7525 183.429 82.4981 182.26 84.46C180.687 86.955 179.325 89.5775 178.19 92.3C176.07 97.25 174.49 102.59 175.19 107.89C175.196 108.014 175.242 108.133 175.32 108.23C175.443 108.316 175.591 108.358 175.74 108.35C187.24 108.86 198.74 108.65 210.27 109.1C216.68 109.35 223.27 109.79 229.38 107.97C228.31 105.177 227.574 102.266 227.19 99.3C226.76 95.86 226.78 92.3 225.27 89.11C224.207 87.0872 222.818 85.2528 221.16 83.68C219.61 81.9808 217.853 80.4825 215.93 79.22C214.301 78.1795 212.459 77.5198 210.54 77.29C208.7 77.06 207.19 76.24 205.28 76.08Z" fill="url(#paint1_linear)"/>
    <path d="M188.86 68.76C189.341 70.0896 190.067 71.3175 191 72.38C191.995 73.359 193.174 74.1306 194.47 74.65C195.655 75.21 196.933 75.5489 198.24 75.65C199.539 75.6485 200.823 75.3816 202.015 74.8657C203.207 74.3498 204.28 73.5958 205.17 72.65C206.876 70.8016 208.301 68.7126 209.4 66.45C209.46 66.81 209.98 66.97 210.33 66.81C210.667 66.6248 210.929 66.3277 211.07 65.97C211.633 64.8257 211.947 63.5747 211.99 62.3C212.009 62.0227 211.961 61.7447 211.85 61.49C211.4 60.7 210.14 60.97 209.28 61.35C208.55 59.98 208.71 58.35 208.18 56.9C207.18 54.14 204.02 52.72 201.18 51.59C198.527 50.3628 195.682 49.6049 192.77 49.35C191.97 49.283 191.166 49.4028 190.42 49.7C189.736 50.0563 189.131 50.5459 188.64 51.14C187.433 52.2567 186.581 53.7032 186.19 55.3C186.178 56.42 186.316 57.5366 186.6 58.62C186.884 62.0877 187.645 65.4997 188.86 68.76Z" fill="#E4A98A"/>
    <path d="M184.31 48.17C183.376 50.2745 182.954 52.5708 183.08 54.87C183.034 56.7146 183.283 58.5546 183.82 60.32C184.37 61.93 185.29 63.43 185.5 65.11C185.86 68.04 184 70.84 184.1 73.79C184.084 74.5914 184.342 75.3743 184.83 76.01C185.91 77.28 187.91 77.09 189.52 76.65C189.833 76.5913 190.122 76.4418 190.35 76.22C190.481 76.0084 190.563 75.7703 190.591 75.523C190.619 75.2757 190.591 75.0253 190.51 74.79L187.9 61.24C187.81 60.8552 187.81 60.4549 187.9 60.07C188.067 59.6874 188.317 59.346 188.63 59.07C189.583 58.0022 190.301 56.7466 190.738 55.3842C191.176 54.0217 191.323 52.5828 191.17 51.16C191.494 51.9017 191.978 52.562 192.589 53.093C193.199 53.6241 193.921 54.0124 194.7 54.23C196.258 54.6601 197.879 54.8125 199.49 54.68L203.37 60.53C203.516 60.797 203.725 61.0238 203.98 61.19C204.89 61.72 206.06 60.58 207.04 60.95C207.445 61.4758 207.73 62.0843 207.873 62.7325C208.017 63.3806 208.016 64.0523 207.87 64.7C207.67 66.01 207.15 67.25 206.87 68.55C206.44 70.4974 206.54 72.5245 207.16 74.42C207.298 74.9893 207.617 75.4982 208.07 75.87C208.468 76.0982 208.912 76.2349 209.37 76.27L217.77 77.5L217.83 66.73C217.924 63.9415 217.767 61.1502 217.36 58.39C217.097 56.2086 216.148 54.1672 214.65 52.56C213.731 51.8009 212.766 51.0996 211.76 50.46C209.91 49.1 208.45 47.26 206.56 45.96C202.73 43.34 197.96 43.47 193.56 44.19C189.76 44.76 186.39 44.06 184.31 48.17Z" fill="#3E3E52"/>
    <path d="M204.19 78.92C204.36 79.8832 204.227 80.8754 203.81 81.76C203 83.09 201.09 83.43 199.48 83.22C198.583 83.1397 197.719 82.8447 196.96 82.36C196.082 81.6978 195.463 80.7499 195.21 79.68C194.97 78.6409 194.86 77.5762 194.88 76.51L194.79 72.51C194.781 72.4572 194.784 72.4032 194.798 72.3515C194.812 72.2998 194.836 72.2516 194.87 72.21C194.957 72.1565 195.058 72.1319 195.16 72.14H199.48C200.41 72.14 202.42 71.77 203.21 72.33C204.53 73.3 204.19 77.54 204.19 78.92Z" fill="#E4A98A"/>
    <path d="M209.19 78.15C209.81 77.92 210.68 78.36 210.59 79.01C211.115 78.32 211.533 77.5547 211.83 76.74C211.98 76.3302 212.21 75.9546 212.507 75.6352C212.804 75.3157 213.162 75.059 213.56 74.88C214.38 74.61 215.49 75.15 215.47 76.02C216.4 73.7603 217.606 71.6241 219.06 69.66C220.542 67.6895 222.701 66.3362 225.12 65.86C226.12 67.12 225.56 68.93 224.9 70.38C223.829 72.7412 222.487 74.9695 220.9 77.02C221.9 76.65 223.18 76.35 223.9 77.15C224.113 77.4495 224.227 77.8077 224.227 78.175C224.227 78.5423 224.113 78.9005 223.9 79.2C223.469 79.7905 222.917 80.2816 222.28 80.64C223.34 80.55 224.08 81.88 223.77 82.9C223.566 83.392 223.259 83.8352 222.872 84.2005C222.484 84.5659 222.023 84.8452 221.52 85.02C220.512 85.3629 219.545 85.8191 218.64 86.38C218.27 86.67 217.94 87.02 217.55 87.29C215.36 88.74 209.67 88.53 207.7 86.62C205.73 84.71 206.77 79.08 209.19 78.15Z" fill="#6C63FF"/>
    <path d="M187.42 82.76C187.24 80.96 189.15 79.19 190.86 79.76L188.36 75.22C187.98 74.55 187.76 73.44 188.5 73.22C189.05 73.05 189.77 73.6 190.15 73.22C190.273 73.049 190.333 72.8404 190.32 72.63C190.285 71.4213 190.335 70.2116 190.47 69.01C190.544 68.4086 190.746 67.8299 191.061 67.3125C191.377 66.7952 191.799 66.3511 192.3 66.01C192.412 65.9313 192.539 65.8765 192.673 65.849C192.808 65.8215 192.946 65.8218 193.08 65.85C193.42 65.96 193.58 66.33 193.7 66.67L196.88 75.43C197.68 74.79 197.88 73.58 198.74 73.02C199.81 72.32 201.36 73.12 201.85 74.31C202.225 75.5456 202.15 76.874 201.64 78.06C202.759 77.397 204.021 77.0128 205.32 76.94C205.143 79.4661 204.765 81.974 204.19 84.44C204.184 84.5483 204.156 84.6542 204.108 84.7514C204.06 84.8487 203.993 84.9353 203.911 85.0062C203.829 85.0771 203.733 85.1307 203.63 85.164C203.527 85.1973 203.418 85.2096 203.31 85.2C200.01 85.59 187.96 88.3 187.42 82.76Z" fill="#6C63FF"/>
    <path d="M209.19 78.15C209.81 77.92 210.68 78.36 210.59 79.01C211.115 78.32 211.533 77.5547 211.83 76.74C211.98 76.3302 212.21 75.9546 212.507 75.6352C212.804 75.3157 213.162 75.059 213.56 74.88C214.38 74.61 215.49 75.15 215.47 76.02C216.4 73.7603 217.606 71.6241 219.06 69.66C220.542 67.6895 222.701 66.3362 225.12 65.86C226.12 67.12 225.56 68.93 224.9 70.38C223.829 72.7412 222.487 74.9695 220.9 77.02C221.9 76.65 223.18 76.35 223.9 77.15C224.113 77.4495 224.227 77.8077 224.227 78.175C224.227 78.5423 224.113 78.9005 223.9 79.2C223.469 79.7905 222.917 80.2816 222.28 80.64C223.34 80.55 224.08 81.88 223.77 82.9C223.566 83.392 223.259 83.8352 222.872 84.2005C222.484 84.5659 222.023 84.8452 221.52 85.02C220.512 85.3629 219.545 85.8191 218.64 86.38C218.27 86.67 217.94 87.02 217.55 87.29C215.36 88.74 209.67 88.53 207.7 86.62C205.73 84.71 206.77 79.08 209.19 78.15Z" fill="url(#paint2_linear)"/>
    <path d="M187.42 82.76C187.24 80.96 189.15 79.19 190.86 79.76L188.36 75.22C187.98 74.55 187.76 73.44 188.5 73.22C189.05 73.05 189.77 73.6 190.15 73.22C190.273 73.049 190.333 72.8404 190.32 72.63C190.285 71.4213 190.335 70.2116 190.47 69.01C190.544 68.4086 190.746 67.8299 191.061 67.3125C191.377 66.7952 191.799 66.3511 192.3 66.01C192.412 65.9313 192.539 65.8765 192.673 65.849C192.808 65.8215 192.946 65.8218 193.08 65.85C193.42 65.96 193.58 66.33 193.7 66.67L196.88 75.43C197.68 74.79 197.88 73.58 198.74 73.02C199.81 72.32 201.36 73.12 201.85 74.31C202.225 75.5456 202.15 76.874 201.64 78.06C202.759 77.397 204.021 77.0128 205.32 76.94C205.143 79.4661 204.765 81.974 204.19 84.44C204.184 84.5483 204.156 84.6542 204.108 84.7514C204.06 84.8487 203.993 84.9353 203.911 85.0062C203.829 85.0771 203.733 85.1307 203.63 85.164C203.527 85.1973 203.418 85.2096 203.31 85.2C200.01 85.59 187.96 88.3 187.42 82.76Z" fill="url(#paint3_linear)"/>
    <path d="M225.19 84.91C226.481 85.0227 227.763 85.2164 229.03 85.49C229.903 90.5559 228.808 95.7639 225.97 100.05C220.97 107.51 210.78 110.87 202.15 109C197.303 107.86 193.025 105.022 190.09 101C188.469 98.8004 187.194 96.3655 186.31 93.78C185.74 92.13 184 87.96 184.98 86.3C185.96 84.64 190.35 84.68 192.04 84.51C195.129 84.2418 198.23 84.1283 201.33 84.17C208.103 84.17 214.867 84.35 221.62 84.71C222.83 84.73 224.03 84.8 225.19 84.91Z" fill="#6C63FF"/>
    <path d="M225.19 84.91C226.481 85.0227 227.763 85.2164 229.03 85.49C229.903 90.5559 228.808 95.7639 225.97 100.05C220.97 107.51 210.78 110.87 202.15 109C197.303 107.86 193.025 105.022 190.09 101C188.469 98.8004 187.194 96.3655 186.31 93.78C185.74 92.13 184 87.96 184.98 86.3C185.96 84.64 190.35 84.68 192.04 84.51C195.129 84.2418 198.23 84.1283 201.33 84.17C208.103 84.17 214.867 84.35 221.62 84.71C222.83 84.73 224.03 84.8 225.19 84.91Z" fill="url(#paint4_linear)"/>
    <path opacity="0.18" d="M188.36 236.05C282.69 236.05 359.16 226.366 359.16 214.42C359.16 202.474 282.69 192.79 188.36 192.79C94.0299 192.79 17.5601 202.474 17.5601 214.42C17.5601 226.366 94.0299 236.05 188.36 236.05Z" fill="#6C63FF"/>
    <path d="M226.63 212.88C226.355 212.884 226.083 212.818 225.84 212.69C225.08 212.21 225.53 211.02 226.12 210.34C227.459 208.893 228.962 207.608 230.6 206.51L236.84 201.98C237.387 201.543 237.989 201.18 238.63 200.9C239.438 200.641 240.282 200.516 241.13 200.53L246.52 200.3C246.906 200.25 247.298 200.298 247.66 200.44C248.073 200.686 248.387 201.068 248.55 201.52C249.333 203.442 249.744 205.495 249.76 207.57C249.873 208.484 249.742 209.413 249.38 210.26C248.65 211.6 246.68 211.67 245.38 211.89C243.28 212.24 241.18 212.54 239.07 212.74C234.934 213.123 230.774 213.169 226.63 212.88Z" fill="#6C63FF"/>
    <path d="M315.71 69.11L311.58 214.53H304.26V167.52H261.57V214.53H254.25V160.31L305.57 159.63L307.12 69.11H315.71Z" fill="#6C63FF"/>
    <path d="M39.6 69.11L43.73 214.53H51.05V167.52H93.74V214.53H101.07V160.31L49.74 159.63L48.2 69.11H39.6Z" fill="#6C63FF"/>
    <path d="M315.71 69.11L311.58 214.53H304.26V167.52H261.57V214.53H254.25V160.31L305.57 159.63L307.12 69.11H315.71Z" fill="url(#paint5_linear)"/>
    <path d="M39.6 69.11L43.73 214.53H51.05V167.52H93.74V214.53H101.07V160.31L49.74 159.63L48.2 69.11H39.6Z" fill="url(#paint6_linear)"/>
    <path d="M305.08 145.47C305.66 145.8 304.51 149.54 304.37 149.95C303.754 151.614 302.799 153.133 301.567 154.41C300.335 155.687 298.851 156.695 297.21 157.37C291.06 160.09 283.62 158.96 277.1 159.37C267.84 159.95 258.577 160.363 249.31 160.61C249.543 175.403 249.703 190.193 249.79 204.98C246.031 204.419 242.408 203.172 239.1 201.3C238.518 201.02 238.01 200.605 237.62 200.09C237.328 199.543 237.157 198.939 237.12 198.32L235.12 183.79C234.01 175.67 232.91 167.49 233.43 159.32C233.911 154.719 233.469 150.068 232.13 145.64C231.48 143.47 231.52 142.41 233.13 140.78C236 137.89 241.37 136.89 245.13 136C255.35 133.6 265.95 132.61 276.41 131.91C277.64 131.83 278.87 131.75 280.1 131.7L305.08 145.47Z" fill="#3E3E52"/>
    <path d="M246.02 35.45C246.56 38.2 247.02 41.18 245.75 43.69C245.36 44.48 244.81 45.4 245.24 46.17C245.533 46.5494 245.914 46.8515 246.35 47.05C248.51 48.32 249.68 50.7 250.92 52.88C252.16 55.06 253.78 57.3 256.21 57.88C258.64 58.46 261.26 57.12 263.8 57.33C266.75 57.56 269.11 59.79 271.04 62.04C271.269 62.3955 271.628 62.647 272.04 62.74C272.373 62.7215 272.691 62.5991 272.95 62.39C275.53 60.7005 277.929 58.7502 280.11 56.57C280.286 56.4264 280.413 56.2302 280.47 56.01C280.478 55.7491 280.393 55.4939 280.23 55.29C275.98 48.29 275.92 39.65 274.59 31.57C273.91 27.5 272.81 23.33 270.11 20.21C266.11 15.61 259.33 14.27 253.34 15.37C252.089 15.5376 250.895 15.9928 249.85 16.7C248.929 17.5046 248.172 18.479 247.62 19.57C244.73 24.52 244.92 29.93 246.02 35.45Z" fill="#E4A98A"/>
    <path d="M263.75 42.99C259.92 44.45 255.66 44.23 251.7 45.29C250.661 45.4718 249.719 46.0134 249.04 46.82C248.768 47.3163 248.595 47.8614 248.534 48.4242C248.472 48.987 248.522 49.5564 248.68 50.1C249.021 51.598 249.483 53.0661 250.06 54.49C250.9 56.71 251.86 59.1 253.88 60.35C255.114 61.0141 256.48 61.3966 257.88 61.47C260.043 61.8407 262.268 61.5333 264.25 60.59C266.25 59.46 267.47 57.35 268.58 55.34L272.63 48.05C273.81 45.91 275.04 43.51 274.44 41.14C273.84 38.77 272.2 36.98 270.04 38.68C267.88 40.38 266.3 42.02 263.75 42.99Z" fill="#3E3E52"/>
    <path d="M296.03 63.04C303.098 73.5697 306.948 85.9291 307.11 98.61C307.22 104.61 306 109.61 306.62 115.66C307.505 122.979 307.685 130.366 307.16 137.72C306.996 140.48 306.409 143.198 305.42 145.78C304.359 148.233 302.723 150.394 300.649 152.081C298.576 153.767 296.127 154.93 293.51 155.47C281.74 157.79 270.46 146.82 265.81 137.15C264.631 134.955 263.971 132.52 263.88 130.03C263.88 127.03 265.2 124.23 266.19 121.41C268.39 115.19 268.3 109.32 268.57 102.93C268.84 96.54 269.49 90.06 269.48 83.56C269.48 78.97 269.34 74.34 270.22 69.84C271.1 65.34 273.1 60.84 276.64 57.96C284.19 51.72 291.33 56.18 296.03 63.04Z" fill="#6C63FF"/>
    <path d="M297.44 63.96C298.934 66.1246 300.271 68.3937 301.44 70.75C306.5 80.75 307.82 92.23 307.71 103.44C307.6 114.65 306.13 125.79 305.94 137C306.056 139.849 305.769 142.701 305.09 145.47C304.375 147.652 303.163 149.638 301.549 151.271C299.935 152.904 297.964 154.14 295.79 154.88C283.53 159.06 272.41 147.88 267.55 137.88C266.372 135.685 265.712 133.249 265.62 130.76C265.62 127.76 266.94 124.96 267.94 122.14C270.13 115.92 270.04 110.04 270.31 103.65C270.58 97.26 271.19 90.76 271.19 84.3C271.19 79.71 271.06 75.08 271.94 70.58C272.82 66.08 274.82 61.63 278.35 58.7C286.24 52.14 292.83 57.36 297.44 63.96Z" fill="url(#paint7_linear)"/>
    <path d="M289.59 99.37C288.45 103.06 287.11 106.08 282.4 108.28C278.26 110.2 273.58 110.56 269.02 110.72C263.59 110.91 258.21 110.72 252.75 110.54C252.03 110.558 251.313 110.436 250.64 110.18C249.903 109.764 249.273 109.182 248.8 108.48C247.64 107.154 246.692 105.656 245.99 104.04C245.64 103.232 245.47 102.356 245.492 101.476C245.515 100.595 245.729 99.7295 246.12 98.94C246.601 98.2041 247.233 97.5792 247.975 97.1067C248.716 96.6343 249.55 96.3252 250.42 96.2C252.157 95.9599 253.918 95.9398 255.66 96.14C258.62 96.3267 261.58 96.3833 264.54 96.31C266.61 96.25 270.35 96.75 272.07 95.37C272.647 94.8159 273.079 94.1293 273.33 93.37L279.6 78.73C281 75.47 281.88 71.61 284.52 69.07C289.27 64.48 294 67.76 294.79 73.6C295.85 81.32 293.53 87.6 291.04 94.6C290.46 96.3 290.04 97.9 289.59 99.37Z" fill="#6C63FF"/>
    <path d="M255.5 48.73C255.757 49.5375 255.912 50.374 255.96 51.22C255.96 51.69 255.96 52.22 255.54 52.5C255.388 52.5878 255.216 52.634 255.04 52.634C254.864 52.634 254.692 52.5878 254.54 52.5C254.254 52.3075 254.006 52.0633 253.81 51.78C253.4 51.25 252.16 50.15 252.63 49.41C252.85 49.03 255.41 48.46 255.5 48.73Z" fill="#6C63FF"/>
    <path d="M244.31 8.3C243.548 8.52193 242.842 8.90449 242.24 9.42195C241.638 9.93942 241.154 10.5798 240.82 11.3C240.612 12.0354 240.61 12.8135 240.812 13.5503C241.015 14.2871 241.415 14.9544 241.97 15.48C243.097 16.5258 244.531 17.1814 246.06 17.35C245.781 18.0522 245.652 18.8049 245.68 19.56C245.689 19.9477 245.818 20.3229 246.049 20.6344C246.28 20.9459 246.602 21.1784 246.97 21.3C247.453 21.3678 247.945 21.2985 248.39 21.1C250.096 20.5193 251.748 19.7933 253.33 18.93C253.927 18.529 254.614 18.2817 255.33 18.21C255.956 18.279 256.563 18.4656 257.12 18.76C258.571 19.3674 260.138 19.6507 261.71 19.59C262.268 19.5199 262.832 19.5199 263.39 19.59C265.18 19.96 266.01 22 266.55 23.75L269.19 32.36C270.101 30.8569 271.131 29.429 272.27 28.09C272.862 28.6277 273.323 29.2931 273.619 30.0359C273.915 30.7786 274.038 31.579 273.978 32.3763C273.918 33.1736 273.678 33.9468 273.274 34.637C272.871 35.3273 272.315 35.9166 271.65 36.36C271.42 36.51 271.16 36.67 271.1 36.94C271.077 37.1083 271.094 37.2797 271.15 37.44L274.43 48.64C275.234 48.16 276.154 47.9109 277.09 47.92C279.41 46.14 280.18 43.06 281.03 40.26C282.104 36.7169 283.507 33.2819 285.22 30C285.94 28.63 286.73 27.09 286.28 25.62C285.71 23.78 283.35 22.69 283.36 20.76C283.433 20.0591 283.644 19.3794 283.98 18.76C284.79 16.87 285.08 14.56 283.98 12.81C283.385 11.9546 282.614 11.2354 281.72 10.7C279.627 9.29577 277.33 8.22313 274.91 7.52C275.73 5.81 274.35 3.84 272.82 2.72C269.728 0.553017 265.928 -0.358466 262.19 0.169997C258.465 0.711419 254.984 2.34727 252.19 4.87C251.14 5.8 249.73 5.87 248.51 6.51C247.143 7.1811 245.741 7.77862 244.31 8.3Z" fill="#3E3E52"/>
    <path d="M104.33 157.67C109.13 167.11 114.07 176.48 119.15 185.78C123.59 193.91 127.1 202.34 136.28 205.99C137.546 206.365 138.725 206.987 139.75 207.82C140.68 208.74 141.07 210.39 140.18 211.36C139.43 212.18 138.18 212.17 137.05 212.1L124.77 211.36C123.548 211.364 122.337 211.123 121.21 210.65C119.21 209.65 118.21 207.31 117.31 205.22C114.48 198.75 109.31 193.86 106.31 187.71C103.567 181.957 100.364 176.436 96.73 171.2C91.07 163.2 84.45 155.38 82.58 145.77C82.3975 145.385 82.3337 144.954 82.3968 144.532C82.4598 144.11 82.6469 143.717 82.9342 143.401C83.2215 143.086 83.596 142.864 84.0102 142.762C84.4243 142.66 84.8594 142.684 85.26 142.83C89.3743 143.087 93.2566 144.824 96.19 147.72" fill="#E4A98A"/>
    <path d="M98.19 98.97C99.9354 97.5951 101.185 95.6889 101.75 93.54C102.311 91.4093 103.013 89.3181 103.85 87.28C104.935 85.0726 106.642 83.2304 108.76 81.98C109.56 81.4429 110.506 81.1637 111.47 81.18C112.49 81.332 113.433 81.809 114.16 82.54C115.527 83.5997 116.453 85.1279 116.76 86.83C116.99 88.83 115.85 90.83 114.44 92.29C113.03 93.75 111.32 94.92 109.94 96.43C108.855 97.722 107.853 99.0814 106.94 100.5C102.336 106.895 95.7141 111.555 88.14 113.73C87.4163 114.138 86.5666 114.261 85.7567 114.076C84.9469 113.892 84.235 113.412 83.76 112.73C81.76 110.4 79.96 107.59 79.57 104.49C79.43 103.34 79.34 101.4 80.09 100.4C80.84 99.4 82.73 99.4 84.01 99.4C88.72 99.36 93.67 102.03 98.19 98.97Z" fill="#E4A98A"/>
    <path d="M99.07 32.44C95.48 26.64 87.72 23.59 81.33 25.97C80.7376 26.251 80.095 26.4108 79.44 26.44C74.78 26.23 71.37 23.77 66.8 26.83C65.3038 27.8517 64.089 29.2337 63.2676 30.8486C62.4462 32.4634 62.0447 34.2591 62.1 36.07C58.99 35.19 55.73 37.73 54.67 40.78C53.61 43.83 54.19 47.2 54.86 50.36C52.19 51.59 50.6 54.54 50.19 57.47C49.9621 60.4208 50.2325 63.389 50.99 66.25C48.55 65.52 46.13 68.07 45.99 70.61C45.85 73.15 47.19 75.52 48.49 77.71C46.7643 78.1561 45.1679 79.0024 43.8302 80.1803C42.4925 81.3582 41.4509 82.8347 40.79 84.49C39.61 87.84 40.79 92.04 43.79 93.86C44.71 94.41 45.79 94.74 46.64 95.32C47.49 95.9 48.06 96.49 48.8 97.04C52.63 99.92 58.33 99.04 62.16 96.15C70.61 89.82 72.25 77.42 78.16 69.15C82.64 62.9 89.3 61.15 95.16 56.72C99.16 53.72 100.38 49.24 101.16 44.4C101.917 40.2917 101.175 36.0483 99.07 32.44Z" fill="#3E3E52"/>
    <path d="M98.82 54.97L99.32 56.97C99.4573 57.3896 99.4814 57.838 99.39 58.27C99.2 58.85 98.61 59.2 98.17 59.62C96.88 60.84 96.71 62.81 95.83 64.35C94.47 66.75 91.53 67.83 88.83 67.97C87.4073 67.8879 85.9825 68.0919 84.64 68.57C82.96 69.4 82.11 71.29 81.71 73.12C81.4122 74.482 81.2979 75.8777 81.37 77.27C81.58 81.27 83.37 85.27 82.85 89.27C79.36 88.93 76.15 87.27 73.03 85.69C69.91 84.11 66.34 82.01 65.52 78.53C64.39 73.71 68.25 68.96 68.9 64.34C69.74 58.41 69.03 52.34 69.84 46.42C70.0644 43.6725 71.0476 41.0413 72.68 38.82C73.801 37.5332 75.159 36.4739 76.68 35.7C82.79 32.39 90.36 33.28 94.15 39.57C95.6069 42.3379 96.632 45.3122 97.19 48.39L98.82 54.97Z" fill="#E4A98A"/>
    <path d="M66.83 76.04C67.3676 75.8656 67.9367 75.8102 68.4979 75.8775C69.0591 75.9449 69.5989 76.1334 70.08 76.43C72.08 77.67 80.58 89.5 82.8 89.3C85.02 89.1 89.06 97.6 87.92 101.68C86.78 105.76 83.56 108.53 83.25 113.1C82.94 117.67 80.13 127.96 80.13 127.96L97.38 135.02C95.62 141.8 95.23 148.77 92.98 155.5C92.7654 156.486 92.2182 157.369 91.43 158C90.7446 158.353 89.9805 158.525 89.21 158.5C79.5784 158.952 69.9262 158.658 60.34 157.62C57.34 157.3 54.19 156.83 51.84 154.96C48.34 152.18 47.64 147.17 47.74 142.7C48.08 127.41 54.61 112.91 56.44 97.7C56.93 93.59 57.1 89.4 58.44 85.48C59.35 82.77 63.05 77.12 66.83 76.04Z" fill="#6C63FF"/>
    <path d="M69.53 139.11C65.2523 142.687 61.5255 146.875 58.47 151.54C58.1479 151.921 57.908 152.365 57.7652 152.843C57.6224 153.322 57.5798 153.824 57.64 154.32C57.8601 154.937 58.2696 155.469 58.81 155.84C64.29 160.25 71.98 158.49 78.36 160.1C86.02 162.04 89.8 171.1 92.58 177.84C92.9048 178.881 93.5021 179.817 94.31 180.55C95.2642 181.127 96.3653 181.416 97.48 181.38C102.974 181.669 108.483 181.361 113.91 180.46C115.011 180.377 116.059 179.954 116.91 179.25C118.13 178.02 117.91 176.02 117.57 174.32C115.833 166.158 112.595 158.389 108.02 151.41C105.88 148.14 103.44 144.41 100.49 141.82C97.25 138.95 92.25 137.62 88.25 135.89C85.53 134.7 82.67 133.5 79.71 133.72C76.75 133.94 73.96 135.64 71.54 137.48C70.87 138.01 70.19 138.55 69.53 139.11Z" fill="#3E3E52"/>
    <path d="M81 49.88C79.8902 50.1326 78.8006 50.4668 77.74 50.88C77.2117 51.0934 76.7533 51.4497 76.4159 51.9089C76.0786 52.3681 75.8757 52.9121 75.83 53.48C76.05 52.48 74.83 51.58 73.83 51.8C73.3424 51.9493 72.9093 52.2382 72.5841 52.631C72.2588 53.0237 72.0558 53.5031 72 54.01C71.8721 54.9073 72.0528 55.8215 72.5125 56.6028C72.9721 57.384 73.6835 57.9859 74.53 58.31C72.68 60.65 73.05 63.96 72.89 66.93C72.7 70.2812 71.72 73.5399 70.03 76.44C68.9911 78.3414 67.505 79.9614 65.7 81.16C64.44 81.94 62.57 82.33 61.62 81.16C61.2001 80.5372 60.9804 79.8011 60.99 79.05C59.99 67.67 59.69 55.91 63.54 45.16C64.3463 42.7183 65.5343 40.4198 67.06 38.35C70.32 34.16 75.48 31.76 80.72 30.9C85.72 30.09 92.11 31.52 90.11 37.66C88.56 42.62 86.46 48.15 81 49.88Z" fill="#3E3E52"/>
    <path d="M69.02 76.44C70.5325 77.3044 71.7647 78.5852 72.57 80.13C76.67 86.88 77.88 95.13 82.02 101.81C82.5633 102.766 83.2669 103.622 84.1 104.34C84.9228 104.942 85.829 105.42 86.79 105.76C91.9552 107.811 97.4061 109.052 102.95 109.44C105.58 109.63 107.95 109.82 110.31 108.8C111.628 108.234 113.047 107.939 114.481 107.932C115.916 107.926 117.337 108.208 118.66 108.762C119.983 109.316 121.181 110.131 122.183 111.158C123.184 112.185 123.969 113.403 124.49 114.74C124.568 114.879 124.614 115.034 124.624 115.193C124.635 115.352 124.609 115.512 124.55 115.66C124.36 115.99 123.92 116.04 123.55 116.05L118.07 116.28L110.71 116.57L109.39 116.63C102.08 116.92 93.88 118.16 86.76 116.07C79.64 113.98 74.61 108.3 69.61 103.01C66.9825 100.473 64.6356 97.6597 62.61 94.62C60.72 91.49 59.61 87.76 60.27 84.17C60.93 80.58 65.4 76.9 69.02 76.44Z" fill="#E4A98A"/>
    <path d="M113.59 88.77L119.46 96.77C119.46 96.77 120.23 97.77 118.56 97.26C116.89 96.75 111.5 87.26 111.5 87.26C110.39 85.26 109.08 83.46 107.97 81.51C107.74 81.09 107.52 80.67 107.3 80.24C107.267 80.1428 107.204 80.0587 107.12 80C107.036 79.9571 106.944 79.9332 106.85 79.93C106.51 79.93 106.16 79.93 105.85 79.93C105.554 79.955 105.256 79.955 104.96 79.93C104.604 79.8782 104.264 79.7522 103.96 79.56C102.949 78.7932 102.206 77.7253 101.84 76.51C101.549 75.9688 101.45 75.3447 101.56 74.74C101.895 75.0175 102.174 75.357 102.38 75.74C102.731 76.2676 103.14 76.7539 103.6 77.19C103.771 77.3922 104.016 77.518 104.28 77.54C104.344 77.5345 104.405 77.5062 104.45 77.46C104.54 77.37 104.45 77.21 104.45 77.09L102.99 73.51C102.897 73.3385 102.875 73.1373 102.93 72.95C103.324 73.0056 103.682 73.2095 103.93 73.52C104.175 73.8259 104.38 74.162 104.54 74.52C104.922 75.3435 105.395 76.1216 105.95 76.84C105.989 76.9048 106.049 76.9542 106.12 76.98C106.17 76.9848 106.219 76.9725 106.261 76.9453C106.303 76.918 106.334 76.8774 106.35 76.83C106.38 76.7356 106.38 76.6344 106.35 76.54C106.17 75.22 104.95 74.19 104.87 72.86C105.376 72.9947 105.814 73.3117 106.1 73.75C106.381 74.1838 106.622 74.6424 106.82 75.12C107.117 75.7233 107.451 76.3077 107.82 76.87C108.037 77.182 108.218 77.5174 108.36 77.87C108.424 78.0517 108.448 78.2454 108.429 78.4373C108.41 78.6292 108.349 78.8145 108.25 78.98C108.223 79.0113 108.206 79.0494 108.2 79.09C108.204 79.1343 108.221 79.1763 108.25 79.21L109.16 80.68C109.42 81.09 109.69 81.46 109.98 81.84C110.173 82.1565 110.334 82.4915 110.46 82.84C110.88 83.67 111.31 84.5 111.74 85.33C112.33 86.45 112.92 87.58 113.52 88.7L113.59 88.77Z" fill="#6C63FF"/>
    <path d="M109.19 70.75C109.346 70.8833 109.469 71.0511 109.55 71.24C109.62 71.4647 109.62 71.7053 109.55 71.93C109.338 72.4574 108.996 72.9223 108.555 73.2809C108.114 73.6395 107.589 73.8801 107.03 73.98C105.915 74.17 104.817 74.4544 103.75 74.83C102.81 75.28 101.94 76.09 100.9 75.99C100.572 75.947 100.257 75.8358 99.9742 75.6636C99.6917 75.4914 99.4484 75.2619 99.26 74.99C98.9034 74.4266 98.6242 73.8178 98.43 73.18C98.3514 73.0009 98.3271 72.8028 98.36 72.61C98.4303 72.4371 98.5526 72.2903 98.71 72.19C100.445 70.885 102.414 69.9243 104.51 69.36C106.46 68.76 107.8 69.3 109.19 70.75Z" fill="#5D2E33"/>
    <path d="M107.75 70.95C107.389 71.2924 106.959 71.5548 106.49 71.72C105.29 72.1662 104.041 72.4683 102.77 72.62C102.495 72.6434 102.223 72.697 101.96 72.78C101.451 73.0119 100.982 73.3223 100.57 73.7C100.154 74.0814 99.614 74.2982 99.05 74.31C99.0477 74.5927 99.1116 74.872 99.2366 75.1255C99.3616 75.379 99.5443 75.5998 99.77 75.77C100.169 76.0052 100.62 76.1375 101.082 76.155C101.545 76.1724 102.005 76.0745 102.42 75.87C103.27 75.52 104.04 74.98 104.91 74.68C106.1 74.26 107.43 74.34 108.61 73.88C108.869 73.7808 109.112 73.6425 109.33 73.47C109.617 73.2055 109.823 72.8648 109.924 72.4877C110.025 72.1106 110.017 71.7126 109.9 71.34C109.715 70.7472 109.316 70.2446 108.78 69.93C108.13 69.6 108.1 70.58 107.75 70.95Z" fill="url(#paint8_linear)"/>
    <path d="M92.71 61.43C91.574 61.2681 90.4275 61.1913 89.28 61.2C89.3562 62.574 89.8955 63.8817 90.81 64.91C90.9102 65.0436 91.0361 65.1559 91.1804 65.24C91.3247 65.3242 91.4844 65.3786 91.65 65.4C91.8358 65.3712 92.0122 65.2993 92.1651 65.1898C92.3179 65.0804 92.4429 64.9366 92.53 64.77C93.1271 63.9117 93.4733 62.904 93.53 61.86C93.5452 61.801 93.5452 61.739 93.53 61.68C93.5033 61.6462 93.47 61.6182 93.4322 61.5976C93.3944 61.5769 93.3529 61.5642 93.31 61.56L92.03 61.21" fill="#6C63FF"/>
    <path d="M108.68 108.98C105.85 108.98 102.81 109.08 100.55 110.2C98.29 111.32 97.22 113.39 96.4 115.28C91.4 126.68 85.86 138.18 75.83 148.02C75.2 148.64 74.52 149.3 74.51 150.02C74.5666 150.422 74.7072 150.808 74.9225 151.153C75.1378 151.497 75.4232 151.793 75.76 152.02C81.38 156.95 91.54 158.6 100.87 158.51C103.37 158.51 106.02 158.39 108.23 159.18C109.767 159.797 111.157 160.731 112.31 161.92C117.31 166.51 122.7 171.47 130.77 173.35C138.63 175.19 147.83 173.77 155.22 176.35C160.95 178.35 164.35 182.27 168.22 185.72C169.762 187.318 171.806 188.339 174.01 188.61C177.5 188.86 180.12 186.67 182.47 184.94C187.31 181.37 193.72 178.94 199.59 176.14C205.46 173.34 211.13 169.87 213.3 165.29C214.5 168.82 221.06 170.38 226.46 169.88C231.86 169.38 236.74 167.49 242.04 166.66C250.43 165.36 259.15 166.78 267.74 167.18C272.74 167.41 278.38 167.1 281.64 164.59C284.64 162.27 284.54 158.76 283.01 155.88C281.48 153 278.75 150.45 276.84 147.67C272.75 141.67 272.64 134.89 271.56 128.35C270.63 122.69 268.56 114.7 261.47 110.78C257.99 108.84 252.16 109.55 247.85 109.48C241.49 109.373 235.127 109.28 228.76 109.2C203.147 108.86 177.53 108.71 151.91 108.75C137.483 108.77 123.073 108.847 108.68 108.98Z" fill="#6C63FF"/>
    <path d="M250.01 152.57C243.26 142.57 245.1 129.39 243.37 117.47C243 114.91 242.14 111.98 239.72 111.03C238.811 110.732 237.855 110.603 236.9 110.65L147.08 109.46C144.63 109.46 142.08 109.46 139.93 110.69C135.7 113.21 135.56 119.14 133.53 123.63L142.31 115C143.59 117 143.58 119.46 143.47 121.8C143.192 127.65 142.558 133.477 141.57 139.25C141.168 142.257 140.325 145.188 139.07 147.95C137.788 150.73 135.497 152.918 132.66 154.07C134.896 155.374 137.453 156.025 140.04 155.95C141.154 155.983 142.253 155.688 143.2 155.1C143.953 154.499 144.569 153.746 145.01 152.89C149.424 145.506 152.631 137.465 154.51 129.07C154.849 127.057 155.441 125.095 156.27 123.23C156.689 122.298 157.312 121.472 158.092 120.813C158.873 120.153 159.791 119.677 160.78 119.42C161.971 119.275 163.18 119.457 164.276 119.947C165.372 120.437 166.313 121.216 167 122.2C168.342 124.197 169.22 126.469 169.57 128.85C170.482 133.334 170.898 137.905 170.81 142.48C170.73 147.21 170.11 152.02 171.13 156.65C172.72 163.85 178 169.59 181.27 176.19C175.933 158.161 175.217 139.078 179.19 120.7C179.18 120.211 179.278 119.726 179.477 119.28C179.677 118.834 179.973 118.437 180.344 118.119C180.715 117.8 181.151 117.568 181.623 117.439C182.094 117.309 182.588 117.286 183.07 117.37L218.44 116.37C222.3 116.25 226.44 116.22 229.64 118.37C233.14 120.71 234.64 125.02 235.92 129.03L241.26 145.8C241.742 147.033 241.983 148.346 241.97 149.67C241.77 151.149 241.184 152.55 240.27 153.73C236.669 158.904 231.19 162.467 225 163.66C223.765 163.965 222.475 163.965 221.24 163.66C218.24 162.75 216.97 159.35 216.08 156.37L215.9 164.52C215.782 165.391 215.973 166.275 216.44 167.02C216.925 167.527 217.566 167.858 218.26 167.96C222.26 168.83 226.26 167.2 230.15 166.06C236.82 164.06 243.25 164.01 250.15 164.27C252.69 164.37 253.98 163.04 253.98 160.35C253.92 157.3 251.58 154.91 250.01 152.57Z" fill="url(#paint9_linear)"/>
    <path d="M241.73 87.18H231.59V108.73H241.73V87.18Z" fill="#6C63FF"/>
    <path opacity="0.18" d="M232.9 93.3C232.888 93.193 232.898 93.0847 232.929 92.9816C232.96 92.8786 233.011 92.7827 233.08 92.7C233.236 92.5754 233.43 92.5083 233.63 92.51C235.677 92.3367 237.733 92.2133 239.8 92.14C239.922 92.1081 240.05 92.1092 240.171 92.1432C240.293 92.1773 240.403 92.2429 240.49 92.3335C240.578 92.4241 240.64 92.5364 240.669 92.6588C240.699 92.7812 240.696 92.9093 240.66 93.03C240.807 96.7833 240.883 100.537 240.89 104.29C240.89 105.23 241.02 106.96 240.18 107.53C239.59 107.94 237.36 107.74 236.62 107.66C235.953 107.641 235.303 107.447 234.735 107.095C234.168 106.744 233.704 106.249 233.39 105.66C231.66 102.38 232.77 96.84 232.9 93.3Z" fill="#6C63FF"/>
    <path opacity="0.18" d="M232.9 93.3C232.888 93.193 232.898 93.0847 232.929 92.9816C232.96 92.8786 233.011 92.7827 233.08 92.7C233.236 92.5754 233.43 92.5083 233.63 92.51C235.677 92.3367 237.733 92.2133 239.8 92.14C239.922 92.1081 240.05 92.1092 240.171 92.1432C240.293 92.1773 240.403 92.2429 240.49 92.3335C240.578 92.4241 240.64 92.5364 240.669 92.6588C240.699 92.7812 240.696 92.9093 240.66 93.03C240.807 96.7833 240.883 100.537 240.89 104.29C240.89 105.23 241.02 106.96 240.18 107.53C239.59 107.94 237.36 107.74 236.62 107.66C235.953 107.641 235.303 107.447 234.735 107.095C234.168 106.744 233.704 106.249 233.39 105.66C231.66 102.38 232.77 96.84 232.9 93.3Z" fill="#6C63FF"/>
    <path d="M149.22 87.18H139.08V108.73H149.22V87.18Z" fill="#6C63FF"/>
    <path d="M127.63 87.18H117.49V108.73H127.63V87.18Z" fill="#6C63FF"/>
    <path d="M236.19 97.45C235.258 97.6982 234.422 98.2209 233.791 98.9502C233.159 99.6796 232.762 100.582 232.65 101.54C232.58 103.54 234.16 105.24 235.98 105.99C237.86 106.61 239.847 106.845 241.82 106.68C243.96 106.68 247.69 107.54 248.54 105.13C248.831 104.32 248.934 103.455 248.843 102.599C248.751 101.743 248.466 100.92 248.01 100.19C245.93 97.5 239.19 96.54 236.19 97.45Z" fill="#E4A98A"/>
    <path opacity="0.18" d="M140.38 93.87C140.364 93.6515 140.428 93.4347 140.56 93.26C140.719 93.1345 140.918 93.0705 141.12 93.08C143.167 92.9133 145.22 92.7867 147.28 92.7C147.476 92.6711 147.676 92.7062 147.85 92.8C147.954 92.9038 148.034 93.0293 148.084 93.1676C148.134 93.3059 148.153 93.4535 148.14 93.6C148.3 97.34 148.38 101.1 148.38 104.85C148.38 105.79 148.51 107.52 147.67 108.1C147.07 108.5 144.85 108.31 144.11 108.22C143.442 108.208 142.789 108.015 142.22 107.663C141.652 107.311 141.189 106.813 140.88 106.22C139.19 102.94 140.25 97.41 140.38 93.87Z" fill="#6C63FF"/>
    <path opacity="0.18" d="M140.38 93.87C140.364 93.6515 140.428 93.4347 140.56 93.26C140.719 93.1345 140.918 93.0705 141.12 93.08C143.167 92.9133 145.22 92.7867 147.28 92.7C147.476 92.6711 147.676 92.7062 147.85 92.8C147.954 92.9038 148.034 93.0293 148.084 93.1676C148.134 93.3059 148.153 93.4535 148.14 93.6C148.3 97.34 148.38 101.1 148.38 104.85C148.38 105.79 148.51 107.52 147.67 108.1C147.07 108.5 144.85 108.31 144.11 108.22C143.442 108.208 142.789 108.015 142.22 107.663C141.652 107.311 141.189 106.813 140.88 106.22C139.19 102.94 140.25 97.41 140.38 93.87Z" fill="#6C63FF"/>
    <path opacity="0.18" d="M118.8 93.87C118.776 93.7667 118.778 93.659 118.805 93.5565C118.832 93.4539 118.884 93.3595 118.956 93.2816C119.028 93.2037 119.118 93.1446 119.218 93.1094C119.318 93.0743 119.425 93.0642 119.53 93.08C121.53 92.91 123.64 92.78 125.69 92.7C125.886 92.6711 126.086 92.7062 126.26 92.8C126.37 92.9002 126.454 93.0249 126.506 93.164C126.558 93.303 126.577 93.4524 126.56 93.6C126.71 97.34 126.79 101.1 126.79 104.85C126.79 105.79 126.92 107.52 126.08 108.1C125.49 108.5 123.26 108.31 122.52 108.22C121.852 108.206 121.2 108.012 120.632 107.661C120.064 107.309 119.601 106.811 119.29 106.22C117.56 102.94 118.67 97.41 118.8 93.87Z" fill="#6C63FF"/>
    <path opacity="0.18" d="M118.8 93.87C118.776 93.7667 118.778 93.659 118.805 93.5565C118.832 93.4539 118.884 93.3595 118.956 93.2816C119.028 93.2037 119.118 93.1446 119.218 93.1094C119.318 93.0743 119.425 93.0642 119.53 93.08C121.53 92.91 123.64 92.78 125.69 92.7C125.886 92.6711 126.086 92.7062 126.26 92.8C126.37 92.9002 126.454 93.0249 126.506 93.164C126.558 93.303 126.577 93.4524 126.56 93.6C126.71 97.34 126.79 101.1 126.79 104.85C126.79 105.79 126.92 107.52 126.08 108.1C125.49 108.5 123.26 108.31 122.52 108.22C121.852 108.206 121.2 108.012 120.632 107.661C120.064 107.309 119.601 106.811 119.29 106.22C117.56 102.94 118.67 97.41 118.8 93.87Z" fill="#6C63FF"/>
    <path d="M72.43 77.68C71.6602 76.2557 70.4974 75.0825 69.08 74.3C66.87 73.3 64.14 74.21 62.41 75.93C60.7795 77.7571 59.5951 79.9376 58.95 82.3C58.0986 84.3276 57.7322 86.5259 57.88 88.72C58.1417 90.1834 58.6132 91.6013 59.28 92.93L64.81 105.3C67.0702 103.517 69.2364 101.617 71.3 99.61C73.3703 97.5867 75.9528 96.1658 78.77 95.5C77.7775 92.4971 77.0382 89.4163 76.56 86.29C75.99 83.3 74.04 80.24 72.43 77.68Z" fill="#6C63FF"/>
    <path d="M136.63 206.89C135.558 207.071 134.524 207.429 133.57 207.95C131.894 208.628 130.066 208.839 128.28 208.56C125.95 208.19 123.85 207 121.62 206.24C121.064 206.02 120.467 205.922 119.87 205.95C119.566 205.973 119.275 206.079 119.027 206.255C118.778 206.431 118.582 206.671 118.46 206.95C118.317 207.556 118.403 208.193 118.7 208.74L119.54 210.89C119.82 211.731 120.228 212.524 120.75 213.24C121.017 213.594 121.361 213.882 121.756 214.083C122.151 214.284 122.587 214.392 123.03 214.4C124.03 214.4 124.8 213.69 125.73 213.45C126.841 213.279 127.977 213.365 129.05 213.7C130.702 214.006 132.372 214.206 134.05 214.3C137.47 214.56 141.19 214.75 144.05 212.82C144.46 212.54 144.89 212.06 144.68 211.6C144.576 211.416 144.424 211.264 144.24 211.16C142.19 209.75 139.19 206.74 136.63 206.89Z" fill="#6C63FF"/>
    <path d="M202.6 185.02C200.75 186.21 199.54 188.14 197.99 189.68C196.44 191.22 194.15 192.45 192.11 191.68C191.524 191.353 190.899 191.101 190.25 190.93C188.81 190.75 187.72 192.18 186.99 193.44C186.26 194.7 185.42 196.37 185.72 197.93C185.75 198.138 185.84 198.333 185.98 198.49C186.154 198.624 186.362 198.707 186.58 198.73C189.11 199.14 191.64 198.06 193.85 196.73C195.822 195.587 197.689 194.272 199.43 192.8C201.68 190.9 203.84 188.14 202.6 185.02Z" fill="#6C63FF"/>
    <path d="M215.36 187.46C213.52 188.65 212.36 190.58 210.76 192.12C209.16 193.66 206.92 194.89 204.87 194.12C204.286 193.795 203.665 193.543 203.02 193.37C201.57 193.19 200.48 194.62 199.76 195.88C199.04 197.14 198.18 198.81 198.49 200.37C198.516 200.577 198.603 200.772 198.74 200.93C198.917 201.066 199.128 201.149 199.35 201.17C201.87 201.58 204.4 200.5 206.62 199.17C208.588 198.049 210.452 196.753 212.19 195.3C214.45 193.3 216.61 190.58 215.36 187.46Z" fill="#6C63FF"/>
    <path d="M165.63 189.56C166.68 190.796 167.94 191.839 169.35 192.64C170.504 193.259 171.559 194.048 172.48 194.98C172.934 195.456 173.253 196.043 173.406 196.683C173.559 197.322 173.54 197.991 173.35 198.62C172.6 200.52 170.12 200.91 168.08 200.87C164.501 200.802 160.943 200.308 157.48 199.4C153.36 198.33 150.6 193.1 153.28 189.2C155.54 185.92 163.53 186.87 165.63 189.56Z" fill="#6C63FF"/>
    <path d="M135.87 193.73C135.42 192.98 136.19 192.09 136.87 191.6C138.458 190.527 140.226 189.748 142.09 189.3C142.629 189.146 143.189 189.075 143.75 189.09C144.373 189.134 144.984 189.28 145.56 189.52C147.904 190.419 150.012 191.842 151.721 193.681C153.43 195.52 154.695 197.726 155.42 200.13C155.59 200.604 155.648 201.11 155.59 201.61C155.32 202.97 153.67 203.5 152.3 203.61C148.71 203.916 145.1 203.335 141.787 201.919C138.475 200.504 135.56 198.296 133.3 195.49" fill="#6C63FF"/>
    <path d="M151.29 90.66C150.894 90.4556 150.455 90.3493 150.01 90.35C149.01 90.42 148.39 91.35 148.14 92.35C147.44 95.01 148.79 97.79 150.5 99.95C152.42 102.235 154.56 104.325 156.89 106.19C159.13 108.12 161.54 110.12 164.45 110.61C165.217 110.755 166.003 110.755 166.77 110.61C167.812 110.346 168.753 109.782 169.477 108.987C170.201 108.192 170.675 107.202 170.84 106.14C171.58 101.46 168.35 99.77 164.84 98.3C160.03 96.3 156.07 92.72 151.29 90.66Z" fill="#E4A98A"/>
    <path d="M141.73 68.3C141.685 68.2848 141.635 68.2848 141.59 68.3C141.51 68.36 141.52 68.47 141.59 68.57C141.729 69.104 141.979 69.6027 142.323 70.0335C142.668 70.4643 143.099 70.8175 143.59 71.07C143.801 71.1997 144.04 71.2774 144.287 71.2965C144.534 71.3157 144.782 71.2757 145.01 71.18C145.206 71.0459 145.378 70.8804 145.52 70.69C146.12 69.94 147.18 68.61 145.77 68.24C144.426 68.0918 143.069 68.1119 141.73 68.3Z" fill="#6C63FF"/>
    <path d="M149.46 89.89C149.294 89.8016 149.108 89.7569 148.92 89.76C148.362 89.695 147.798 89.695 147.24 89.76C146.681 89.8362 146.158 90.0803 145.74 90.46C145.464 90.7528 145.241 91.0911 145.08 91.46C144.862 91.9092 144.698 92.3824 144.59 92.87C144.494 93.411 144.467 93.9622 144.51 94.51C144.534 95.059 144.625 95.6029 144.78 96.13C144.886 96.5132 145.07 96.8706 145.32 97.18C145.599 97.4821 145.94 97.7208 146.32 97.88C146.972 98.1856 147.693 98.3132 148.41 98.25C149.134 98.1623 149.798 97.8053 150.27 97.25C150.71 96.6575 150.945 95.9379 150.94 95.2C150.921 94.469 150.828 93.7418 150.66 93.03C150.559 92.4126 150.422 91.8015 150.25 91.2C150.109 90.7005 149.836 90.2481 149.46 89.89Z" fill="#E4A98A"/>
    <defs>
        <linearGradient id="paint0_linear" x1="143.44" y1="130.48" x2="142.87" y2="82.89" gradientUnits="userSpaceOnUse">
            <stop offset="0.01"/>
            <stop offset="0.13" stop-opacity="0.69"/>
            <stop offset="1" stop-opacity="0"/>
        </linearGradient>
        <linearGradient id="paint1_linear" x1="12593.1" y1="5277.4" x2="12616.6" y2="4360.05" gradientUnits="userSpaceOnUse">
            <stop offset="0.01"/>
            <stop offset="0.13" stop-opacity="0.69"/>
            <stop offset="1" stop-opacity="0"/>
        </linearGradient>
        <linearGradient id="paint2_linear" x1="4831.02" y1="2893.82" x2="4821.28" y2="2597.86" gradientUnits="userSpaceOnUse">
            <stop offset="0.01"/>
            <stop offset="0.13" stop-opacity="0.69"/>
            <stop offset="1" stop-opacity="0"/>
        </linearGradient>
        <linearGradient id="paint3_linear" x1="4190.7" y1="2652.6" x2="4181.89" y2="2382.88" gradientUnits="userSpaceOnUse">
            <stop offset="0.01"/>
            <stop offset="0.13" stop-opacity="0.69"/>
            <stop offset="1" stop-opacity="0"/>
        </linearGradient>
        <linearGradient id="paint4_linear" x1="9625.74" y1="3443.08" x2="11618.8" y2="3443.08" gradientUnits="userSpaceOnUse">
            <stop offset="0.01"/>
            <stop offset="0.13" stop-opacity="0.69"/>
            <stop offset="1" stop-opacity="0"/>
        </linearGradient>
        <linearGradient id="paint5_linear" x1="17924.6" y1="30230.7" x2="16096.3" y2="10222.7" gradientUnits="userSpaceOnUse">
            <stop offset="0.01"/>
            <stop offset="0.13" stop-opacity="0.69"/>
            <stop offset="1" stop-opacity="0"/>
        </linearGradient>
        <linearGradient id="paint6_linear" x1="4080.02" y1="32055.7" x2="9227.07" y2="-4820.87" gradientUnits="userSpaceOnUse">
            <stop offset="0.01"/>
            <stop offset="0.13" stop-opacity="0.69"/>
            <stop offset="1" stop-opacity="0"/>
        </linearGradient>
        <linearGradient id="paint7_linear" x1="210.69" y1="131.45" x2="299.27" y2="102.2" gradientUnits="userSpaceOnUse">
            <stop offset="0.01"/>
            <stop offset="0.13" stop-opacity="0.69"/>
            <stop offset="0.77" stop-opacity="0.16"/>
            <stop offset="1" stop-opacity="0"/>
        </linearGradient>
        <linearGradient id="paint8_linear" x1="-12376.3" y1="754.062" x2="-12496.1" y2="754.062" gradientUnits="userSpaceOnUse">
            <stop offset="0.01"/>
            <stop offset="0.13" stop-opacity="0.69"/>
            <stop offset="1" stop-opacity="0"/>
        </linearGradient>
        <linearGradient id="paint9_linear" x1="-139115" y1="2330.23" x2="-139222" y2="12086.9" gradientUnits="userSpaceOnUse">
            <stop offset="0.01" stop-opacity="0.06"/>
            <stop offset="0.13" stop-opacity="0.16"/>
            <stop offset="1" stop-opacity="0.96"/>
        </linearGradient>
    </defs>
</svg>
